<?xml version="1.0" encoding="UTF-8" standalone="no"?>
<svg
   xmlns:dc="http://purl.org/dc/elements/1.1/"
   xmlns:cc="http://creativecommons.org/ns#"
   xmlns:rdf="http://www.w3.org/1999/02/22-rdf-syntax-ns#"
   xmlns:svg="http://www.w3.org/2000/svg"
   xmlns="http://www.w3.org/2000/svg"
   xmlns:sodipodi="http://sodipodi.sourceforge.net/DTD/sodipodi-0.dtd"
   xmlns:inkscape="http://www.inkscape.org/namespaces/inkscape"
   width="1024"
   height="600"
   viewBox="0 0 270.93333 158.75001"
   version="1.1"
   id="svg8"
   inkscape:version="1.0 (4035a4fb49, 2020-05-01)"
   sodipodi:docname="background.svg"
   inkscape:export-filename="C:\Users\dtmgr\Documents\SpaceMan\graphics\background.png"
   inkscape:export-xdpi="96"
   inkscape:export-ydpi="96">
  <defs
     id="defs2">
    <inkscape:path-effect
       effect="fillet_chamfer"
       id="path-effect1438"
       is_visible="true"
       lpeversion="1"
       satellites_param="F,0,0,1,0,2,0,1 @ F,0,0,1,0,2,0,1 @ F,0,0,1,0,2,0,1 @ F,0,0,1,0,2,0,1 @ F,0,0,1,0,2,0,1 @ F,0,0,1,0,2,0,1 @ F,0,0,1,0,2,0,1 @ F,0,0,1,0,2,0,1"
       unit="px"
       method="auto"
       mode="F"
       radius="2"
       chamfer_steps="1"
       flexible="false"
       use_knot_distance="true"
       apply_no_radius="true"
       apply_with_radius="true"
       only_selected="false"
       hide_knots="false" />
    <inkscape:path-effect
       effect="fillet_chamfer"
       id="path-effect1436"
       is_visible="true"
       lpeversion="1"
       satellites_param="C,0,0,1,0,16,0,1 @ C,0,0,1,0,16,0,1 @ C,0,0,1,0,16,0,1 @ C,0,0,1,0,16,0,1"
       unit="px"
       method="auto"
       mode="F"
       radius="16"
       chamfer_steps="1"
       flexible="false"
       use_knot_distance="true"
       apply_no_radius="true"
       apply_with_radius="true"
       only_selected="false"
       hide_knots="false" />
    <inkscape:path-effect
       effect="fillet_chamfer"
       id="path-effect1434"
       is_visible="true"
       lpeversion="1"
       satellites_param="F,0,0,1,0,2,0,1 @ F,0,0,1,0,2,0,1 @ F,0,0,1,0,2,0,1 @ F,0,0,1,0,2,0,1 @ F,0,0,1,0,2,0,1 @ F,0,0,1,0,2,0,1 @ F,0,0,1,0,2,0,1 @ F,0,0,1,0,2,0,1"
       unit="px"
       method="auto"
       mode="F"
       radius="2"
       chamfer_steps="1"
       flexible="false"
       use_knot_distance="true"
       apply_no_radius="true"
       apply_with_radius="true"
       only_selected="false"
       hide_knots="false" />
    <inkscape:path-effect
       effect="fillet_chamfer"
       id="path-effect1432"
       is_visible="true"
       lpeversion="1"
       satellites_param="C,0,0,1,0,12,0,1 @ C,0,0,1,0,12,0,1 @ C,0,0,1,0,12,0,1 @ C,0,0,1,0,12,0,1"
       unit="px"
       method="auto"
       mode="F"
       radius="12"
       chamfer_steps="1"
       flexible="false"
       use_knot_distance="true"
       apply_no_radius="true"
       apply_with_radius="true"
       only_selected="false"
       hide_knots="false" />
    <inkscape:path-effect
       effect="fillet_chamfer"
       id="path-effect1427"
       is_visible="true"
       lpeversion="1"
       satellites_param="F,0,0,1,0,2,0,1 @ F,0,0,1,0,2,0,1 @ F,0,0,1,0,2,0,1 @ F,0,0,1,0,2,0,1 @ F,0,0,1,0,2,0,1 @ F,0,0,1,0,2,0,1 @ F,0,0,1,0,2,0,1 @ F,0,0,1,0,2,0,1"
       unit="px"
       method="auto"
       mode="F"
       radius="2"
       chamfer_steps="1"
       flexible="false"
       use_knot_distance="true"
       apply_no_radius="true"
       apply_with_radius="true"
       only_selected="false"
       hide_knots="false" />
    <inkscape:path-effect
       effect="fillet_chamfer"
       id="path-effect1425"
       is_visible="true"
       lpeversion="1"
       satellites_param="C,0,0,1,0,16,0,1 @ C,0,0,1,0,16,0,1 @ C,0,0,1,0,16,0,1 @ C,0,0,1,0,16,0,1"
       unit="px"
       method="auto"
       mode="C"
       radius="16"
       chamfer_steps="1"
       flexible="false"
       use_knot_distance="true"
       apply_no_radius="true"
       apply_with_radius="true"
       only_selected="false"
       hide_knots="false" />
    <inkscape:perspective
       sodipodi:type="inkscape:persp3d"
       inkscape:vp_x="0 : 150.28334 : 1"
       inkscape:vp_y="0 : 1000 : 0"
       inkscape:vp_z="12.757247 : 159.27028 : 1"
       inkscape:persp3d-origin="8.4666666 : 147.46112 : 1"
       id="perspective14" />
  </defs>
  <sodipodi:namedview
     id="base"
     pagecolor="#ffffff"
     bordercolor="#666666"
     borderopacity="1.0"
     inkscape:pageopacity="0"
     inkscape:pageshadow="2"
     inkscape:zoom="0.98994949"
     inkscape:cx="662.87298"
     inkscape:cy="288.52719"
     inkscape:document-units="px"
     inkscape:current-layer="layer2"
     inkscape:document-rotation="0"
     showgrid="false"
     inkscape:pagecheckerboard="false"
     units="px"
     inkscape:showpageshadow="false" />
  <metadata
     id="metadata5">
    <rdf:RDF>
      <cc:Work
         rdf:about="">
        <dc:format>image/svg+xml</dc:format>
        <dc:type
           rdf:resource="http://purl.org/dc/dcmitype/StillImage" />
        <dc:title />
      </cc:Work>
    </rdf:RDF>
  </metadata>
  <g
     inkscape:groupmode="layer"
     id="layer2"
     inkscape:label="Layer 1">
    <path
       id="rect1398"
       style="fill:#808080;stroke:#000000;stroke-width:0.352778;stroke-linecap:round;stroke-miterlimit:4;stroke-dasharray:none;stroke-opacity:1;paint-order:stroke fill markers;stop-color:#000000"
       d="M -1.0690781,-0.62698861 V 159.37699 H 272.00242 V -0.62698861 Z M 117.93771,22.038159 h 41.06271 a 4.8665321,4.8665672 0 0 1 3.44121,1.425556 l 13.27523,13.27533 a 4.8665321,4.8665672 0 0 1 1.42555,3.441232 v 18.595255 a 4.8665321,4.8665672 0 0 1 -1.42555,3.441229 l -13.27523,13.27533 a 4.8665321,4.8665672 0 0 1 -3.44121,1.425559 h -41.06271 a 4.8665321,4.8665672 0 0 1 -3.4412,-1.425559 L 101.22127,62.216761 A 4.8665321,4.8665672 0 0 1 99.795726,58.775532 V 40.180277 a 4.8665321,4.8665672 0 0 1 1.425544,-3.441232 l 13.27524,-13.27533 a 4.8665321,4.8665672 0 0 1 3.4412,-1.425556 z M 25.692854,68.334623 h 42.140328 a 4.8665321,4.8665672 0 0 1 3.441205,1.425035 l 13.275758,13.27585 a 4.8665321,4.8665672 0 0 1 1.425025,3.441233 v 10.244004 a 4.8665321,4.8665672 0 0 1 -1.425025,3.441235 l -13.275758,13.27585 a 4.8665321,4.8665672 0 0 1 -3.441205,1.42503 H 25.692854 a 4.8665321,4.8665672 0 0 1 -3.440687,-1.42503 L 8.976412,100.16198 A 4.8665321,4.8665672 0 0 1 7.550866,96.720745 V 86.476741 a 4.8665321,4.8665672 0 0 1 1.425546,-3.441233 l 13.275755,-13.27585 a 4.8665321,4.8665672 0 0 1 3.440687,-1.425035 z m 176.839066,2.192241 h 47.77896 a 4.8665321,4.8665672 0 0 1 3.44121,1.425035 l 9.24392,9.24398 a 4.8665321,4.8665672 0 0 1 1.42502,3.441232 v 18.846299 a 4.8665321,4.8665672 0 0 1 -1.42502,3.44123 l -9.24392,9.24399 a 4.8665321,4.8665672 0 0 1 -3.44121,1.42555 h -47.77896 a 4.8665321,4.8665672 0 0 1 -3.44121,-1.42555 l -9.24391,-9.24399 a 4.8665321,4.8665672 0 0 1 -1.42555,-3.44123 V 84.637111 a 4.8665321,4.8665672 0 0 1 1.42555,-3.441232 l 9.24391,-9.24398 a 4.8665321,4.8665672 0 0 1 3.44121,-1.425035 z" />
  </g>
</svg>
