<?xml version="1.0" encoding="UTF-8" standalone="no"?>
<svg
   xmlns:dc="http://purl.org/dc/elements/1.1/"
   xmlns:cc="http://creativecommons.org/ns#"
   xmlns:rdf="http://www.w3.org/1999/02/22-rdf-syntax-ns#"
   xmlns:svg="http://www.w3.org/2000/svg"
   xmlns="http://www.w3.org/2000/svg"
   xmlns:sodipodi="http://sodipodi.sourceforge.net/DTD/sodipodi-0.dtd"
   xmlns:inkscape="http://www.inkscape.org/namespaces/inkscape"
   inkscape:export-ydpi="96"
   inkscape:export-xdpi="96"
   inkscape:export-filename="C:\Users\dtmgr\Documents\SpaceMan\graphics\door\doorframe.png"
   height="104"
   width="94.5"
   inkscape:version="1.0 (4035a4fb49, 2020-05-01)"
   sodipodi:docname="door.svg"
   id="svg15"
   xml:space="preserve"
   viewBox="0 0 94.499999 104"
   y="0px"
   x="0px"
   version="1.1"><metadata
   id="metadata21"><rdf:RDF><cc:Work
       rdf:about=""><dc:format>image/svg+xml</dc:format><dc:type
         rdf:resource="http://purl.org/dc/dcmitype/StillImage" /><dc:title></dc:title></cc:Work></rdf:RDF></metadata><defs
   id="defs19" /><sodipodi:namedview
   fit-margin-bottom="0"
   fit-margin-right="0"
   fit-margin-left="0"
   fit-margin-top="0"
   inkscape:current-layer="layer2"
   inkscape:cy="51.38039"
   inkscape:cx="35.088976"
   inkscape:zoom="6.2608413"
   showgrid="false"
   id="namedview17"
   inkscape:window-height="480"
   inkscape:window-width="640"
   inkscape:pageshadow="2"
   inkscape:pageopacity="0"
   guidetolerance="10"
   gridtolerance="10"
   objecttolerance="10"
   borderopacity="1"
   bordercolor="#666666"
   pagecolor="#555555" />
<style
   id="style2"
   type="text/css">
	.st0{fill:#B3B3B3;stroke:#000000;stroke-miterlimit:10;}
	.st1{fill:#808080;stroke:#000000;stroke-miterlimit:10;}
	.st2{fill:#00FF00;stroke:#000000;stroke-miterlimit:10;}
	.st3{fill:#CCCCCC;stroke:#000000;stroke-miterlimit:10;}
</style>

<g
   transform="translate(0,8)"
   id="Layer_1">
	
</g>

<g
   transform="translate(0,8)"
   style="display:inline"
   inkscape:label="background"
   id="layer4"
   inkscape:groupmode="layer"><rect
     inkscape:export-ydpi="96"
     inkscape:export-xdpi="96"
     inkscape:export-filename="C:\Users\dtmgr\Documents\SpaceMan\graphics\door\doorlight.png"
     y="3.0347359"
     x="10.86116"
     height="92.465263"
     width="69.63884"
     id="rect1023"
     style="fill:#000000;fill-opacity:1;stroke:#000000;stroke-linecap:round;stop-color:#000000" /></g><g
   transform="translate(0,8)"
   style="display:inline"
   inkscape:label="DoorFrame"
   id="layer2"
   inkscape:groupmode="layer"><path
     sodipodi:nodetypes="cccccccccccc"
     class="st1"
     d="m 15.5,7.5 v 88 H 0.5 V 18.25 C 0.94441126,0.72218183 8.6562165,-7.4618441 23.875,-7.5 H 47.25 70.625 C 84.805584,-7.3819827 93.875035,0.56245888 94,18.25 V 95.5 H 80.5 v -88 z"
     style="fill:#808080;stroke:#000000;stroke-miterlimit:10"
     id="polygon7" /></g><g
   transform="translate(0,8)"
   style="display:none"
   inkscape:label="Door"
   id="layer3"
   inkscape:groupmode="layer"><g
     id="Layer_2"><path
       class="st0"
       d="M 16,8 V 95.5 H 80 V 8 Z m 49.78,27.82 c 0,2.35 -2,4.27 -4.46,4.27 H 34.68 c -2.46,0 -4.46,-1.92 -4.46,-4.27 V 22.96 c 0,-2.35 2,-4.27 4.46,-4.27 h 26.64 c 2.46,0 4.46,1.92 4.46,4.27 z"
       id="path4" /></g></g><g
   transform="translate(0,8)"
   style="display:none"
   inkscape:label="Lights"
   id="layer1"
   inkscape:groupmode="layer"><g
     id="Layer_3"><path
       class="st2"
       d="M 32.64,18.5 H 8.36 C 6.78,18.5 5.5,17.22 5.5,15.64 V 11.35 C 5.5,9.77 6.78,8.49 8.36,8.49 h 24.29 c 1.58,0 2.86,1.28 2.86,2.86 v 4.29 c -0.01,1.58 -1.29,2.86 -2.87,2.86 z"
       id="path10" /><path
       class="st3"
       d="M 32.64,29.5 H 8.36 C 6.78,29.5 5.5,28.22 5.5,26.64 v -4.29 c 0,-1.58 1.28,-2.86 2.86,-2.86 h 24.29 c 1.58,0 2.86,1.28 2.86,2.86 v 4.29 c -0.01,1.58 -1.29,2.86 -2.87,2.86 z"
       id="path12" /><path
       style="display:inline;fill:#cc2424;fill-opacity:1;stroke:#000000;stroke-miterlimit:10"
       id="path12-2"
       d="M 32.64,40.5 H 8.36 C 6.78,40.5 5.5,39.22 5.5,37.64 v -4.29 c 0,-1.58 1.28,-2.86 2.86,-2.86 h 24.29 c 1.58,0 2.86,1.28 2.86,2.86 v 4.29 c -0.01,1.58 -1.29,2.86 -2.87,2.86 z"
       class="st3" /></g></g></svg>
