<?xml version="1.0" encoding="utf-8"?>
<!-- Generator: Adobe Illustrator 24.1.1, SVG Export Plug-In . SVG Version: 6.00 Build 0)  -->
<svg version="1.1" id="Layer_1" xmlns="http://www.w3.org/2000/svg" xmlns:xlink="http://www.w3.org/1999/xlink" x="0px" y="0px"
	 viewBox="0 0 128 128" style="enable-background:new 0 0 128 128;" xml:space="preserve">
<style type="text/css">
	.st0{fill:#00FFFF;stroke:#000000;stroke-miterlimit:10;}
	.st1{fill:#FFFFFF;stroke:#000000;stroke-miterlimit:10;}
	.st2{fill:#39B54A;}
	.st3{fill:none;stroke:#000000;stroke-miterlimit:10;}
	.st4{fill:#B3B3B3;stroke:#000000;stroke-miterlimit:10;}
</style>
<path class="st0" d="M163,64c0,10.4-1.6,20.44-4.56,29.88c-1.62,5.24-3.68,10.3-6.12,15.12c-1.92,3.8-4.08,7.48-6.46,10.98
	C127.88,146.54,97.48,164,63,164c-34.1,0-64.2-17.08-82.24-43.14c-2.64-3.78-5-7.74-7.08-11.86c-2.6-5.14-4.76-10.54-6.44-16.16
	C-35.52,83.72-37,74.02-37,64c0-26.52,10.34-50.62,27.2-68.52C8.42-23.9,34.3-36,63-36c28.08,0,53.44,11.58,71.6,30.22
	C152.18,12.24,163,36.86,163,64z"/>
<path class="st1" d="M134.6-5.78C131.02-4.1,118.53,2,108,3c-7.66,0.73-12.41-0.36-22,0c-6.35,0.24-11.15,6.43-18,8
	c-5.69,1.3-11.86-1.64-18-2c-4.89-0.29-9.82,2.11-14,2C24.28,10.7,20.45-2.14,12-3C4.48-3.76-6.92-3.31-9.8-4.52
	C8.42-23.9,34.3-36,63-36C91.08-36,116.44-24.42,134.6-5.78z"/>
<path class="st1" d="M145.86,119.98C127.88,146.54,97.48,164,63,164c-34.1,0-64.2-17.08-82.24-43.14
	c8.94,2.9,18.49,10.4,31.24,12.14c14.45,1.97,10.54-6,28-6c10,0,11.32,6.7,26,8c8.61,0.77,19.06-4.97,30-6
	c10.54-0.99,21.64,2.76,26,2C131.95,129.26,138.77,122.48,145.86,119.98z"/>
<g>
	<path class="st2" d="M133.61,83.36c-1.3,3.53-1.89,6.69-3.62,9.68c-1.93,3.33,0.91,10.1-1.37,12.57c-2.72,2.95-6.98,5.41-9.86,6.84
		c-3.63,1.81-8.38-0.96-11.61-2.15c-3.23-1.19-5.01-3.71-6.61-7.43c-1.27-2.95-9.46-5.91-9.62-9.92c-0.14-3.35,3.26-7.89,3.94-11.68
		c0.61-3.4,0.6-7.91,1.89-11.45c1.3-3.53,10.73-3.2,12.46-6.18c1.93-3.33-1.97-10.68,0.3-13.15c2.72-2.95,8.46-2.32,11.33-3.75
		c3.63-1.81,9.2-8.84,12.44-7.65c3.23,1.19,5.26,9.16,6.85,12.88c1.27,2.95-5.92,7.57-5.76,11.58c0.14,3.35,9.48,7.37,8.8,11.16
		C142.56,78.12,134.91,79.83,133.61,83.36z"/>
	<path class="st3" d="M133.61,83.36c-1.3,3.53-1.89,6.69-3.62,9.68c-1.93,3.33,0.91,10.1-1.37,12.57c-2.72,2.95-6.98,5.41-9.86,6.84
		c-3.63,1.81-8.38-0.96-11.61-2.15c-3.23-1.19-5.01-3.71-6.61-7.43c-1.27-2.95-9.46-5.91-9.62-9.92c-0.14-3.35,3.26-7.89,3.94-11.68
		c0.61-3.4,0.6-7.91,1.89-11.45c1.3-3.53,10.73-3.2,12.46-6.18c1.93-3.33-1.97-10.68,0.3-13.15c2.72-2.95,8.46-2.32,11.33-3.75
		c3.63-1.81,9.2-8.84,12.44-7.65c3.23,1.19,5.26,9.16,6.85,12.88c1.27,2.95-5.92,7.57-5.76,11.58c0.14,3.35,9.48,7.37,8.8,11.16
		C142.56,78.12,134.91,79.83,133.61,83.36z"/>
</g>
<g>
	<path class="st2" d="M-14.46,27.99c7.55-3.9,6.95-2.14,15.28-0.47c8.33,1.67,8.13,2.69,16.46,4.36c8.33,1.67,11.37-3.52,16.13,3.52
		c6.6,9.75-8.14,17.04,1.05,24.39c7.79,6.24,7.81-7.85,16.67-3.26c6.83,3.54-0.3,1.55-2.63,8.88c-2.33,7.34-4.65,6.6-6.98,13.93
		c-2.33,7.34,3.11,8.61-3.39,12.73c-6.53,4.14-5.42-0.99-13.09-1.99c-7.67-1-7.91,0.88-15.58-0.12s-5.05-1.45-11.02-6.36
		c-7.77-6.39-12.07-2.02-16.57-11.02s-2.31-9.93-3.86-19.88c-1.12-7.19,4.31-6,5.34-13.21C-15.72,33-20.92,31.33-14.46,27.99z"/>
	<path class="st3" d="M-14.46,27.99c7.55-3.9,6.95-2.14,15.28-0.47c8.33,1.67,8.13,2.69,16.46,4.36c8.33,1.67,11.37-3.52,16.13,3.52
		c6.6,9.75-8.14,17.04,1.05,24.39c7.79,6.24,7.81-7.85,16.67-3.26c6.83,3.54-0.3,1.55-2.63,8.88c-2.33,7.34-4.65,6.6-6.98,13.93
		c-2.33,7.34,3.11,8.61-3.39,12.73c-6.53,4.14-5.42-0.99-13.09-1.99c-7.67-1-7.91,0.88-15.58-0.12s-5.05-1.45-11.02-6.36
		c-7.77-6.39-12.07-2.02-16.57-11.02s-2.31-9.93-3.86-19.88c-1.12-7.19,4.31-6,5.34-13.21C-15.72,33-20.92,31.33-14.46,27.99z"/>
</g>
<path class="st0" d="M61,7"/>
<path class="st0" d="M63-36"/>
<path class="st0" d="M61,7"/>
<path class="st4" d="M197.68,54.08c-1.9-10.14-16.6-16.96-39.22-19.94c1.12,3.6,2.06,7.3,2.78,11.08
	c12.6,2.16,20.44,6.1,21.48,11.68c2.92,15.52-47.42,38-112.44,50.2c-65.02,12.22-120.08,9.52-123-6
	c-1.1-5.84,5.34-12.66,17.26-19.54c-0.66-3.7-1.1-7.48-1.34-11.3c-20.96,11.22-32.84,23.24-30.88,33.66
	c4.08,21.7,66.78,28.16,140.06,14.4S201.76,75.8,197.68,54.08z"/>
</svg>
