<?xml version="1.0" encoding="utf-8"?>
<!-- Generator: Adobe Illustrator 24.1.1, SVG Export Plug-In . SVG Version: 6.00 Build 0)  -->
<svg version="1.1" id="Layer_1" xmlns="http://www.w3.org/2000/svg" xmlns:xlink="http://www.w3.org/1999/xlink" x="0px" y="0px"
	 viewBox="0 0 64 96" style="enable-background:new 0 0 64 96;" xml:space="preserve">
<style type="text/css">
	.st0{fill:#E6E6E6;stroke:#000000;stroke-miterlimit:10;}
	.st1{fill:#CCCCCC;stroke:#000000;stroke-miterlimit:10;}
	.st2{fill:#FFFFFF;stroke:#000000;stroke-miterlimit:10;}
	.st3{fill:#00FFFF;stroke:#000000;stroke-miterlimit:10;}
	.st4{fill:#F2F2F2;}
	.st5{fill:#B3B3B3;stroke:#000000;stroke-miterlimit:10;}
</style>
<path class="st0" d="M52.6,118.75c-5.88-20.21-12.98-32-20.6-32s-14.72,11.79-20.6,32H52.6z"/>
<path class="st1" d="M17,50.75v43.37c-2.22,1.74-4.44,3.7-6.59,5.84c-12.29,12.28-18.4,26.71-15.31,34.79
	c-10.71-6-10.85-29.61-0.12-53.65C0.93,67.77,8.99,57.03,17,50.75z"/>
<path class="st1" d="M47,50.75v43.37c2.22,1.74,4.44,3.7,6.59,5.84c12.29,12.28,18.4,26.71,15.31,34.79
	c10.71-6,10.85-29.61,0.12-53.65C63.07,67.77,55.01,57.03,47,50.75z"/>
<path class="st2" d="M69,42.75c0,24.6-6.52,46.26-16.4,59H11.4C1.52,89.01-5,67.35-5,42.75c0-39.22,16.56-71,37-71S69,3.53,69,42.75
	z"/>
<circle class="st3" cx="32" cy="22.75" r="20"/>
<path class="st4" d="M35.71,6.68c6.7,0.83,11.95,6.44,12.31,13.36c0.05,0.92-0.68,1.71-1.59,1.71l-1.62,0
	c-0.78,0-1.49-0.53-1.64-1.3c-0.68-3.36-3.85-8.43-7.81-9.03C34.61,11.3,34,10.66,34,9.9V8.43C34,7.29,34.81,6.57,35.71,6.68z"/>
<path class="st5" d="M44,74.83v25.92H20V74.83c0-5.57,5.38-10.08,12-10.08S44,69.26,44,74.83z"/>
</svg>
