<?xml version="1.0" encoding="utf-8"?>
<!-- Generator: Adobe Illustrator 24.1.1, SVG Export Plug-In . SVG Version: 6.00 Build 0)  -->
<svg version="1.1" xmlns="http://www.w3.org/2000/svg" xmlns:xlink="http://www.w3.org/1999/xlink" x="0px" y="0px"
	 viewBox="0 0 64 96" style="enable-background:new 0 0 64 96;" xml:space="preserve">
<style type="text/css">
	.st0{fill:#B3B3B3;stroke:#000000;stroke-miterlimit:10;}
	.st1{fill:#FFFFFF;stroke:#000000;stroke-miterlimit:10;}
	.st2{fill:#00FFFF;stroke:#000000;stroke-miterlimit:10;}
	.st3{fill:#CCCCCC;stroke:#000000;stroke-miterlimit:10;}
	.st4{fill:#FFF85F;stroke:#000000;stroke-miterlimit:10;}
	.st5{fill:#FFFFFF;}
</style>
<g id="jetpack">
	<rect x="4.5" y="42.5" class="st0" width="9" height="32"/>
</g>
<g id="frontleg">
	<path class="st1" d="M44.78,93.96L44.78,93.96c2.28-0.9,3.4-3.48,2.5-5.76l-3.85-9.77c-0.9-2.28-3.48-3.4-5.76-2.5h0
		c-2.28,0.9-3.4,3.48-2.5,5.76l3.85,9.77C39.92,93.74,42.49,94.86,44.78,93.96z"/>
</g>
<g id="frontarm">
	<path class="st1" d="M42.99,56.28L42.99,56.28c-1.03-1.79-0.42-4.08,1.37-5.11l11.99-6.92c1.79-1.03,4.08-0.42,5.11,1.37l0,0
		c1.03,1.79,0.42,4.08-1.37,5.11L48.1,57.65C46.31,58.68,44.02,58.07,42.99,56.28z"/>
</g>
<g id="body">
	<path class="st2" d="M49.5,45.5h-38v-17c0-10.49,8.51-19,19-19h0c10.49,0,19,8.51,19,19V45.5z"/>
	<path class="st1" d="M32,9.56c0,0-10.4,3.83-11.5,15.94c-1,11,0,20,0,20h-9v-17c0-10.49,8.51-19,19-19h0L32,9.56z"/>
	<path class="st1" d="M42.33,82.5H18.67c-3.96,0-7.17-3.21-7.17-7.17V43.5h38v31.83C49.5,79.29,46.29,82.5,42.33,82.5z"/>
	<path class="st3" d="M49.17,48.5H11.83c-1.29,0-2.33-1.04-2.33-2.33v-5.33c0-1.29,1.04-2.33,2.33-2.33h37.33
		c1.29,0,2.33,1.04,2.33,2.33v5.33C51.5,47.46,50.46,48.5,49.17,48.5z"/>
	<path class="st4" d="M43.89,59.5h-0.78c-1.44,0-2.61-1.17-2.61-2.61V51.5h6v5.39C46.5,58.33,45.33,59.5,43.89,59.5z"/>
	<path class="st5" d="M34.5,12.5c1.5-1.5,9.5,4.5,11,8c0.28,0.65-2.72,3.65-3,3C41,20,37,16,34,15C33.4,14.8,34.05,12.95,34.5,12.5z
		"/>
</g>
<g id="backarm">
	<path class="st1" d="M19.21,73.78L19.21,73.78c-2.04-0.33-3.43-2.25-3.1-4.29l2.2-13.67c0.33-2.04,2.25-3.43,4.29-3.1l0,0
		c2.04,0.33,3.43,2.25,3.1,4.29l-2.2,13.67C23.17,72.72,21.25,74.11,19.21,73.78z"/>
</g>
<g id="backleg">
	<path class="st1" d="M17.51,94.11L17.51,94.11c-2.28-0.9-3.4-3.48-2.5-5.76l3.85-9.77c0.9-2.28,3.48-3.4,5.76-2.5l0,0
		c2.28,0.9,3.4,3.48,2.5,5.76l-3.85,9.77C22.37,93.89,19.79,95.01,17.51,94.11z"/>
</g>
</svg>
